<?xml version="1.0" encoding="utf-8" ?>
<svg baseProfile="full" height="600" version="1.1" viewBox="0,0,100,100" width="600" xmlns="http://www.w3.org/2000/svg" xmlns:ev="http://www.w3.org/2001/xml-events" xmlns:xlink="http://www.w3.org/1999/xlink"><defs /><rect fill="rgb(210, 210, 210)" height="100" width="100" x="0" y="0" /><rect fill="rgb(255, 0, 0)" height="12.0" width="12.0" x="31.0" y="41.0" /><circle cx="56.99999999999999" cy="37.0" fill="rgb(0, 0, 255)" r="5.5" /><polygon fill="rgb(255, 0, 0)" points="26.0,13.5 22.5,20.5 29.5,20.5" /><circle cx="59.0" cy="53.0" fill="rgb(0, 0, 255)" r="3.5000000000000004" /><polygon fill="rgb(0, 0, 255)" points="53.0,6.0 50.0,12.0 56.0,12.0" /><polygon fill="rgb(255, 255, 0)" points="45.0,86.0 42.0,92.0 48.0,92.0" /><rect fill="rgb(0, 0, 255)" height="7.000000000000001" width="7.000000000000001" x="84.5" y="60.5" /><circle cx="90.0" cy="71.0" fill="rgb(255, 255, 0)" r="2.5" /><polygon fill="rgb(255, 0, 0)" points="38.0,69.0 35.0,75.0 41.0,75.0" /><rect fill="rgb(255, 0, 0)" height="6.0" width="6.0" x="3.0" y="54.99999999999999" /><circle cx="20.0" cy="10.0" fill="rgb(255, 0, 0)" r="3.0" /><circle cx="17.0" cy="67.0" fill="rgb(255, 0, 0)" r="3.0" /><circle cx="94.0" cy="48.0" fill="rgb(0, 0, 255)" r="2.5" /></svg>