<?xml version="1.0" encoding="utf-8" ?>
<svg baseProfile="full" height="600" version="1.1" viewBox="0,0,100,100" width="600" xmlns="http://www.w3.org/2000/svg" xmlns:ev="http://www.w3.org/2001/xml-events" xmlns:xlink="http://www.w3.org/1999/xlink"><defs /><rect fill="rgb(210, 210, 210)" height="100" width="100" x="0" y="0" /><circle cx="40.0" cy="71.0" fill="rgb(255, 0, 0)" r="8.0" /><circle cx="13.0" cy="28.999999999999996" fill="rgb(255, 0, 0)" r="4.0" /><polygon fill="rgb(0, 0, 255)" points="59.0,56.5 55.5,63.5 62.5,63.5" /><polygon fill="rgb(0, 0, 255)" points="59.0,6.0 55.0,14.0 63.0,14.0" /><rect fill="rgb(255, 0, 0)" height="5.0" width="5.0" x="19.5" y="0.5" /><circle cx="54.0" cy="84.0" fill="rgb(255, 255, 0)" r="3.0" /><rect fill="rgb(0, 0, 255)" height="6.0" width="6.0" x="49.0" y="17.0" /><circle cx="39.0" cy="50.0" fill="rgb(255, 0, 0)" r="3.0" /><polygon fill="rgb(0, 0, 255)" points="86.0,66.0 83.0,72.0 89.0,72.0" /><circle cx="84.0" cy="26.0" fill="rgb(0, 0, 255)" r="2.5" /><polygon fill="rgb(0, 0, 255)" points="79.0,46.5 76.5,51.5 81.5,51.5" /><circle cx="24.0" cy="87.0" fill="rgb(255, 0, 0)" r="2.5" /><rect fill="rgb(255, 0, 0)" height="5.0" width="5.0" x="33.5" y="40.5" /><rect fill="rgb(0, 0, 255)" height="6.0" width="6.0" x="65.0" y="74.0" /></svg>