<?xml version="1.0" encoding="utf-8" ?>
<svg baseProfile="full" height="600" version="1.1" viewBox="0,0,100,100" width="600" xmlns="http://www.w3.org/2000/svg" xmlns:ev="http://www.w3.org/2001/xml-events" xmlns:xlink="http://www.w3.org/1999/xlink"><defs /><rect fill="rgb(210, 210, 210)" height="100" width="100" x="0" y="0" /><rect fill="rgb(255, 255, 0)" height="10.0" width="10.0" x="37.0" y="80.0" /><polygon fill="rgb(0, 0, 255)" points="75.0,23.0 71.0,31.0 79.0,31.0" /><polygon fill="rgb(255, 255, 0)" points="85.0,29.0 82.0,35.0 88.0,35.0" /><polygon fill="rgb(0, 0, 255)" points="53.0,38.0 49.0,46.0 57.0,46.0" /><rect fill="rgb(255, 255, 0)" height="5.0" width="5.0" x="1.5" y="74.5" /><polygon fill="rgb(255, 0, 0)" points="47.0,55.5 43.5,62.5 50.5,62.5" /><rect fill="rgb(255, 0, 0)" height="6.0" width="6.0" x="6.0" y="25.999999999999996" /><circle cx="84.0" cy="45.0" fill="rgb(0, 0, 255)" r="2.5" /><circle cx="82.0" cy="19.0" fill="rgb(0, 0, 255)" r="3.0" /><polygon fill="rgb(255, 255, 0)" points="90.0,74.5 87.5,79.5 92.5,79.5" /><circle cx="22.0" cy="9.0" fill="rgb(255, 0, 0)" r="3.0" /><polygon fill="rgb(255, 0, 0)" points="10.0,59.0 7.0,65.0 13.0,65.0" /><circle cx="19.0" cy="36.0" fill="rgb(255, 255, 0)" r="3.0" /><circle cx="64.0" cy="56.00000000000001" fill="rgb(0, 0, 255)" r="3.0" /><polygon fill="rgb(255, 255, 0)" points="19.0,49.5 16.5,54.5 21.5,54.5" /></svg>