<?xml version="1.0" encoding="utf-8" ?>
<svg baseProfile="full" height="600" version="1.1" viewBox="0,0,100,100" width="600" xmlns="http://www.w3.org/2000/svg" xmlns:ev="http://www.w3.org/2001/xml-events" xmlns:xlink="http://www.w3.org/1999/xlink"><defs /><rect fill="rgb(210, 210, 210)" height="100" width="100" x="0" y="0" /><polygon fill="rgb(0, 0, 255)" points="64.0,72.5 56.5,87.5 71.5,87.5" /><polygon fill="rgb(0, 0, 255)" points="93.0,9.500000000000002 88.5,18.5 97.5,18.5" /><polygon fill="rgb(255, 0, 0)" points="17.0,2.500000000000001 12.5,11.5 21.5,11.5" /><rect fill="rgb(0, 0, 255)" height="8.0" width="8.0" x="78.0" y="81.0" /><circle cx="53.0" cy="27.0" fill="rgb(0, 0, 255)" r="4.0" /><rect fill="rgb(255, 255, 0)" height="6.0" width="6.0" x="46.0" y="87.0" /><circle cx="13.0" cy="53.0" fill="rgb(255, 0, 0)" r="3.5000000000000004" /><rect fill="rgb(255, 0, 0)" height="6.0" width="6.0" x="19.0" y="82.0" /><polygon fill="rgb(255, 0, 0)" points="38.0,73.5 35.5,78.5 40.5,78.5" /><polygon fill="rgb(0, 0, 255)" points="69.0,46.0 66.0,52.0 72.0,52.0" /><polygon fill="rgb(255, 0, 0)" points="17.0,74.5 14.5,79.5 19.5,79.5" /></svg>