<?xml version="1.0" encoding="utf-8" ?>
<svg baseProfile="full" height="600" version="1.1" viewBox="0,0,100,100" width="600" xmlns="http://www.w3.org/2000/svg" xmlns:ev="http://www.w3.org/2001/xml-events" xmlns:xlink="http://www.w3.org/1999/xlink"><defs /><rect fill="rgb(210, 210, 210)" height="100" width="100" x="0" y="0" /><polygon fill="rgb(255, 255, 0)" points="17.0,11.0 13.0,19.0 21.0,19.0" /><polygon fill="rgb(255, 0, 0)" points="28.000000000000004,8.0 24.000000000000004,16.0 32.0,16.0" /><circle cx="9.0" cy="35.0" fill="rgb(255, 255, 0)" r="4.5" /><polygon fill="rgb(0, 0, 255)" points="93.0,58.5 89.5,65.5 96.5,65.5" /><circle cx="3.0" cy="7.000000000000001" fill="rgb(255, 255, 0)" r="3.0" /><rect fill="rgb(255, 255, 0)" height="6.0" width="6.0" x="67.0" y="31.0" /><circle cx="9.0" cy="92.0" fill="rgb(255, 0, 0)" r="3.5000000000000004" /><rect fill="rgb(255, 0, 0)" height="7.000000000000001" width="7.000000000000001" x="1.4999999999999996" y="52.50000000000001" /><polygon fill="rgb(255, 255, 0)" points="83.0,45.0 80.0,51.0 86.0,51.0" /><rect fill="rgb(255, 255, 0)" height="6.0" width="6.0" x="35.0" y="92.0" /><rect fill="rgb(255, 255, 0)" height="5.0" width="5.0" x="43.5" y="68.5" /><circle cx="71.0" cy="45.0" fill="rgb(0, 0, 255)" r="2.5" /><polygon fill="rgb(0, 0, 255)" points="51.0,74.0 48.0,80.0 54.0,80.0" /><circle cx="59.0" cy="95.0" fill="rgb(0, 0, 255)" r="3.0" /><polygon fill="rgb(255, 0, 0)" points="40.0,80.0 37.0,86.0 43.0,86.0" /></svg>