<?xml version="1.0" encoding="utf-8" ?>
<svg baseProfile="full" height="600" version="1.1" viewBox="0,0,100,100" width="600" xmlns="http://www.w3.org/2000/svg" xmlns:ev="http://www.w3.org/2001/xml-events" xmlns:xlink="http://www.w3.org/1999/xlink"><defs /><rect fill="rgb(210, 210, 210)" height="100" width="100" x="0" y="0" /><polygon fill="rgb(255, 0, 0)" points="25.0,21.5 21.5,28.5 28.5,28.5" /><polygon fill="rgb(0, 0, 255)" points="68.0,78.0 64.0,86.0 72.0,86.0" /><circle cx="67.0" cy="12.0" fill="rgb(0, 0, 255)" r="5.0" /><rect fill="rgb(0, 0, 255)" height="6.0" width="6.0" x="58.0" y="35.0" /><polygon fill="rgb(0, 0, 255)" points="54.0,46.0 51.0,52.0 57.0,52.0" /><circle cx="39.0" cy="86.0" fill="rgb(255, 0, 0)" r="2.5" /><circle cx="26.0" cy="56.99999999999999" fill="rgb(255, 255, 0)" r="3.0" /><circle cx="33.0" cy="64.0" fill="rgb(255, 255, 0)" r="3.0" /><rect fill="rgb(255, 0, 0)" height="6.0" width="6.0" x="40.0" y="25.999999999999996" /><circle cx="31.0" cy="51.0" fill="rgb(255, 255, 0)" r="3.0" /><polygon fill="rgb(255, 0, 0)" points="48.0,39.0 45.0,45.0 51.0,45.0" /><rect fill="rgb(0, 0, 255)" height="5.0" width="5.0" x="86.5" y="37.5" /><polygon fill="rgb(0, 0, 255)" points="93.0,63.0 90.0,69.0 96.0,69.0" /></svg>