<?xml version="1.0" encoding="utf-8" ?>
<svg baseProfile="full" height="600" version="1.1" viewBox="0,0,100,100" width="600" xmlns="http://www.w3.org/2000/svg" xmlns:ev="http://www.w3.org/2001/xml-events" xmlns:xlink="http://www.w3.org/1999/xlink"><defs /><rect fill="rgb(210, 210, 210)" height="100" width="100" x="0" y="0" /><rect fill="rgb(0, 0, 255)" height="7.000000000000001" width="7.000000000000001" x="66.5" y="8.5" /><polygon fill="rgb(255, 255, 0)" points="60.0,36.5 57.5,41.5 62.5,41.5" /><polygon fill="rgb(0, 0, 255)" points="87.0,27.0 83.0,35.0 91.0,35.0" /><polygon fill="rgb(0, 0, 255)" points="88.0,8.0 84.0,16.0 92.0,16.0" /><polygon fill="rgb(255, 0, 0)" points="37.0,12.5 34.5,17.5 39.5,17.5" /><rect fill="rgb(255, 255, 0)" height="5.0" width="5.0" x="55.49999999999999" y="53.50000000000001" /><polygon fill="rgb(0, 0, 255)" points="88.0,66.5 84.5,73.5 91.5,73.5" /><polygon fill="rgb(255, 0, 0)" points="41.0,91.5 38.5,96.5 43.5,96.5" /><circle cx="15.0" cy="93.0" fill="rgb(255, 0, 0)" r="2.5" /><polygon fill="rgb(255, 0, 0)" points="18.0,62.0 15.0,68.0 21.0,68.0" /><polygon fill="rgb(255, 255, 0)" points="40.0,76.5 37.5,81.5 42.5,81.5" /></svg>