<?xml version="1.0" encoding="utf-8" ?>
<svg baseProfile="full" height="600" version="1.1" viewBox="0,0,100,100" width="600" xmlns="http://www.w3.org/2000/svg" xmlns:ev="http://www.w3.org/2001/xml-events" xmlns:xlink="http://www.w3.org/1999/xlink"><defs /><rect fill="rgb(210, 210, 210)" height="100" width="100" x="0" y="0" /><polygon fill="rgb(255, 0, 0)" points="43.0,10.000000000000002 39.0,18.0 47.0,18.0" /><polygon fill="rgb(0, 0, 255)" points="61.0,0.5 56.5,9.5 65.5,9.5" /><circle cx="90.0" cy="85.0" fill="rgb(255, 255, 0)" r="4.0" /><rect fill="rgb(255, 255, 0)" height="8.0" width="8.0" x="49.0" y="82.0" /><rect fill="rgb(0, 0, 255)" height="6.0" width="6.0" x="82.0" y="61.0" /><rect fill="rgb(255, 0, 0)" height="7.000000000000001" width="7.000000000000001" x="42.5" y="44.5" /><polygon fill="rgb(0, 0, 255)" points="53.0,35.5 50.5,40.5 55.5,40.5" /><circle cx="52.0" cy="20.0" fill="rgb(0, 0, 255)" r="2.5" /><rect fill="rgb(255, 0, 0)" height="5.0" width="5.0" x="30.5" y="7.5" /><polygon fill="rgb(255, 0, 0)" points="4.0,48.0 1.0,54.0 7.0,54.0" /><polygon fill="rgb(0, 0, 255)" points="77.0,13.0 74.0,19.0 80.0,19.0" /><rect fill="rgb(0, 0, 255)" height="6.0" width="6.0" x="47.0" y="71.0" /></svg>