<?xml version="1.0" encoding="utf-8" ?>
<svg baseProfile="full" height="600" version="1.1" viewBox="0,0,100,100" width="600" xmlns="http://www.w3.org/2000/svg" xmlns:ev="http://www.w3.org/2001/xml-events" xmlns:xlink="http://www.w3.org/1999/xlink"><defs /><rect fill="rgb(210, 210, 210)" height="100" width="100" x="0" y="0" /><rect fill="rgb(255, 0, 0)" height="15.0" width="15.0" x="0.5" y="58.5" /><rect fill="rgb(0, 0, 255)" height="6.0" width="6.0" x="80.0" y="38.0" /><polygon fill="rgb(0, 0, 255)" points="60.0,33.5 55.5,42.5 64.5,42.5" /><circle cx="54.0" cy="69.0" fill="rgb(255, 255, 0)" r="3.5000000000000004" /><rect fill="rgb(255, 0, 0)" height="7.000000000000001" width="7.000000000000001" x="42.5" y="27.5" /><rect fill="rgb(255, 255, 0)" height="7.000000000000001" width="7.000000000000001" x="43.5" y="49.5" /><polygon fill="rgb(0, 0, 255)" points="92.0,39.0 89.0,45.0 95.0,45.0" /><rect fill="rgb(255, 0, 0)" height="7.000000000000001" width="7.000000000000001" x="11.5" y="34.5" /><rect fill="rgb(255, 0, 0)" height="6.0" width="6.0" x="32.0" y="15.0" /><polygon fill="rgb(0, 0, 255)" points="96.0,18.0 93.0,24.0 99.0,24.0" /><polygon fill="rgb(0, 0, 255)" points="82.0,26.499999999999996 79.5,31.499999999999996 84.5,31.499999999999996" /><rect fill="rgb(255, 0, 0)" height="6.0" width="6.0" x="28.0" y="29.0" /></svg>