<?xml version="1.0" encoding="utf-8" ?>
<svg baseProfile="full" height="600" version="1.1" viewBox="0,0,100,100" width="600" xmlns="http://www.w3.org/2000/svg" xmlns:ev="http://www.w3.org/2001/xml-events" xmlns:xlink="http://www.w3.org/1999/xlink"><defs /><rect fill="rgb(210, 210, 210)" height="100" width="100" x="0" y="0" /><circle cx="45.0" cy="47.0" fill="rgb(255, 255, 0)" r="6.0" /><polygon fill="rgb(255, 255, 0)" points="6.0,57.0 1.0,67.0 11.0,67.0" /><circle cx="6.0" cy="83.0" fill="rgb(255, 0, 0)" r="5.0" /><polygon fill="rgb(255, 0, 0)" points="23.0,86.5 19.5,93.5 26.5,93.5" /><polygon fill="rgb(0, 0, 255)" points="93.0,15.0 90.0,21.0 96.0,21.0" /><polygon fill="rgb(255, 255, 0)" points="47.0,59.5 44.5,64.5 49.5,64.5" /><rect fill="rgb(255, 0, 0)" height="6.0" width="6.0" x="40.0" y="81.0" /><polygon fill="rgb(255, 255, 0)" points="12.0,7.0 9.0,13.0 15.0,13.0" /><polygon fill="rgb(0, 0, 255)" points="91.0,54.99999999999999 88.0,60.99999999999999 94.0,60.99999999999999" /><rect fill="rgb(255, 255, 0)" height="6.0" width="6.0" x="75.0" y="29.0" /><circle cx="17.0" cy="30.0" fill="rgb(255, 0, 0)" r="2.5" /><circle cx="65.0" cy="56.00000000000001" fill="rgb(0, 0, 255)" r="3.0" /><circle cx="27.0" cy="57.99999999999999" fill="rgb(255, 255, 0)" r="3.0" /><rect fill="rgb(255, 255, 0)" height="6.0" width="6.0" x="52.00000000000001" y="11.000000000000002" /><polygon fill="rgb(0, 0, 255)" points="96.0,69.5 93.5,74.5 98.5,74.5" /></svg>