<?xml version="1.0" encoding="utf-8" ?>
<svg baseProfile="full" height="600" version="1.1" viewBox="0,0,100,100" width="600" xmlns="http://www.w3.org/2000/svg" xmlns:ev="http://www.w3.org/2001/xml-events" xmlns:xlink="http://www.w3.org/1999/xlink"><defs /><rect fill="rgb(210, 210, 210)" height="100" width="100" x="0" y="0" /><polygon fill="rgb(0, 0, 255)" points="73.0,34.0 69.0,42.0 77.0,42.0" /><rect fill="rgb(0, 0, 255)" height="9.0" width="9.0" x="62.5" y="77.5" /><polygon fill="rgb(0, 0, 255)" points="81.0,92.5 78.5,97.5 83.5,97.5" /><circle cx="80.0" cy="73.0" fill="rgb(0, 0, 255)" r="3.5000000000000004" /><polygon fill="rgb(255, 0, 0)" points="44.0,82.0 41.0,88.0 47.0,88.0" /><polygon fill="rgb(255, 0, 0)" points="48.0,60.0 45.0,66.0 51.0,66.0" /><rect fill="rgb(255, 0, 0)" height="7.000000000000001" width="7.000000000000001" x="13.5" y="82.5" /><rect fill="rgb(255, 0, 0)" height="6.0" width="6.0" x="8.0" y="93.0" /><polygon fill="rgb(0, 0, 255)" points="79.0,49.0 76.0,55.0 82.0,55.0" /><polygon fill="rgb(255, 255, 0)" points="37.0,89.0 34.0,95.0 40.0,95.0" /><rect fill="rgb(0, 0, 255)" height="5.0" width="5.0" x="60.5" y="48.5" /></svg>