<?xml version="1.0" encoding="utf-8" ?>
<svg baseProfile="full" height="600" version="1.1" viewBox="0,0,100,100" width="600" xmlns="http://www.w3.org/2000/svg" xmlns:ev="http://www.w3.org/2001/xml-events" xmlns:xlink="http://www.w3.org/1999/xlink"><defs /><rect fill="rgb(210, 210, 210)" height="100" width="100" x="0" y="0" /><polygon fill="rgb(255, 255, 0)" points="18.0,47.0 14.0,55.0 22.0,55.0" /><rect fill="rgb(0, 0, 255)" height="6.0" width="6.0" x="72.0" y="34.0" /><polygon fill="rgb(0, 0, 255)" points="73.0,69.0 68.0,79.0 78.0,79.0" /><circle cx="79.0" cy="26.0" fill="rgb(0, 0, 255)" r="4.0" /><polygon fill="rgb(255, 255, 0)" points="56.00000000000001,60.5 53.50000000000001,65.5 58.50000000000001,65.5" /><polygon fill="rgb(255, 0, 0)" points="33.0,36.0 30.0,42.0 36.0,42.0" /><circle cx="85.0" cy="34.0" fill="rgb(0, 0, 255)" r="3.5000000000000004" /><rect fill="rgb(255, 0, 0)" height="5.0" width="5.0" x="29.5" y="23.5" /><polygon fill="rgb(255, 0, 0)" points="39.0,54.49999999999999 36.5,59.49999999999999 41.5,59.49999999999999" /><rect fill="rgb(255, 255, 0)" height="5.0" width="5.0" x="25.500000000000004" y="82.5" /><polygon fill="rgb(255, 0, 0)" points="12.0,82.0 9.0,88.0 15.0,88.0" /><circle cx="87.0" cy="76.0" fill="rgb(255, 255, 0)" r="3.0" /><circle cx="57.99999999999999" cy="4.0" fill="rgb(0, 0, 255)" r="3.0" /><polygon fill="rgb(0, 0, 255)" points="65.0,25.999999999999996 62.0,31.999999999999996 68.0,31.999999999999996" /></svg>