<?xml version="1.0" encoding="utf-8" ?>
<svg baseProfile="full" height="600" version="1.1" viewBox="0,0,100,100" width="600" xmlns="http://www.w3.org/2000/svg" xmlns:ev="http://www.w3.org/2001/xml-events" xmlns:xlink="http://www.w3.org/1999/xlink"><defs /><rect fill="rgb(210, 210, 210)" height="100" width="100" x="0" y="0" /><rect fill="rgb(0, 0, 255)" height="12.0" width="12.0" x="49.00000000000001" y="9.0" /><polygon fill="rgb(255, 255, 0)" points="19.0,69.0 14.0,79.0 24.0,79.0" /><polygon fill="rgb(255, 255, 0)" points="74.0,78.5 69.5,87.5 78.5,87.5" /><circle cx="77.0" cy="33.0" fill="rgb(0, 0, 255)" r="4.0" /><polygon fill="rgb(255, 0, 0)" points="36.0,49.5 33.5,54.5 38.5,54.5" /><polygon fill="rgb(0, 0, 255)" points="63.0,1.5 60.5,6.5 65.5,6.5" /><circle cx="18.0" cy="39.0" fill="rgb(255, 0, 0)" r="3.5000000000000004" /><circle cx="84.0" cy="57.99999999999999" fill="rgb(0, 0, 255)" r="3.0" /><rect fill="rgb(255, 0, 0)" height="7.000000000000001" width="7.000000000000001" x="34.5" y="4.5" /><polygon fill="rgb(255, 0, 0)" points="16.0,83.0 13.0,89.0 19.0,89.0" /><circle cx="18.0" cy="6.0" fill="rgb(255, 0, 0)" r="3.0" /><polygon fill="rgb(255, 255, 0)" points="91.0,94.5 88.5,99.5 93.5,99.5" /><rect fill="rgb(0, 0, 255)" height="6.0" width="6.0" x="49.0" y="48.0" /></svg>