<?xml version="1.0" encoding="utf-8" ?>
<svg baseProfile="full" height="600" version="1.1" viewBox="0,0,100,100" width="600" xmlns="http://www.w3.org/2000/svg" xmlns:ev="http://www.w3.org/2001/xml-events" xmlns:xlink="http://www.w3.org/1999/xlink"><defs /><rect fill="rgb(210, 210, 210)" height="100" width="100" x="0" y="0" /><circle cx="31.0" cy="21.0" fill="rgb(255, 0, 0)" r="8.5" /><rect fill="rgb(0, 0, 255)" height="11.0" width="11.0" x="85.5" y="42.5" /><polygon fill="rgb(0, 0, 255)" points="73.0,15.5 68.5,24.5 77.5,24.5" /><circle cx="61.0" cy="15.0" fill="rgb(0, 0, 255)" r="3.5000000000000004" /><rect fill="rgb(255, 255, 0)" height="8.0" width="8.0" x="69.0" y="86.0" /><circle cx="22.0" cy="41.0" fill="rgb(255, 0, 0)" r="3.5000000000000004" /><polygon fill="rgb(255, 0, 0)" points="28.999999999999996,53.00000000000001 25.999999999999996,59.00000000000001 31.999999999999996,59.00000000000001" /><rect fill="rgb(0, 0, 255)" height="6.0" width="6.0" x="52.00000000000001" y="40.0" /><rect fill="rgb(255, 255, 0)" height="6.0" width="6.0" x="5.0" y="87.0" /><polygon fill="rgb(0, 0, 255)" points="78.0,37.0 75.0,43.0 81.0,43.0" /><rect fill="rgb(0, 0, 255)" height="6.0" width="6.0" x="84.0" y="25.000000000000004" /><rect fill="rgb(255, 0, 0)" height="5.0" width="5.0" x="16.5" y="30.5" /><circle cx="64.0" cy="46.0" fill="rgb(0, 0, 255)" r="2.5" /></svg>