<?xml version="1.0" encoding="utf-8" ?>
<svg baseProfile="full" height="600" version="1.1" viewBox="0,0,100,100" width="600" xmlns="http://www.w3.org/2000/svg" xmlns:ev="http://www.w3.org/2001/xml-events" xmlns:xlink="http://www.w3.org/1999/xlink"><defs /><rect fill="rgb(210, 210, 210)" height="100" width="100" x="0" y="0" /><circle cx="28.000000000000004" cy="17.0" fill="rgb(255, 0, 0)" r="5.5" /><rect fill="rgb(255, 255, 0)" height="9.0" width="9.0" x="34.5" y="73.5" /><rect fill="rgb(255, 0, 0)" height="9.0" width="9.0" x="1.5" y="5.5" /><rect fill="rgb(0, 0, 255)" height="7.000000000000001" width="7.000000000000001" x="55.5" y="42.5" /><polygon fill="rgb(0, 0, 255)" points="52.0,29.0 49.0,35.0 55.0,35.0" /><polygon fill="rgb(255, 0, 0)" points="23.0,74.0 20.0,80.0 26.0,80.0" /><polygon fill="rgb(0, 0, 255)" points="66.0,80.5 62.5,87.5 69.5,87.5" /><circle cx="42.0" cy="65.0" fill="rgb(255, 255, 0)" r="3.0" /><rect fill="rgb(255, 0, 0)" height="6.0" width="6.0" x="4.000000000000001" y="35.0" /><rect fill="rgb(255, 0, 0)" height="6.0" width="6.0" x="13.0" y="30.0" /><circle cx="73.0" cy="95.0" fill="rgb(0, 0, 255)" r="2.5" /><polygon fill="rgb(0, 0, 255)" points="74.0,80.0 71.0,86.0 77.0,86.0" /><polygon fill="rgb(255, 0, 0)" points="6.0,88.0 3.0,94.0 9.0,94.0" /></svg>