<?xml version="1.0" encoding="utf-8" ?>
<svg baseProfile="full" height="600" version="1.1" viewBox="0,0,100,100" width="600" xmlns="http://www.w3.org/2000/svg" xmlns:ev="http://www.w3.org/2001/xml-events" xmlns:xlink="http://www.w3.org/1999/xlink"><defs /><rect fill="rgb(210, 210, 210)" height="100" width="100" x="0" y="0" /><rect fill="rgb(0, 0, 255)" height="12.0" width="12.0" x="82.0" y="16.0" /><polygon fill="rgb(255, 0, 0)" points="22.0,2.4999999999999996 18.5,9.5 25.5,9.5" /><polygon fill="rgb(0, 0, 255)" points="71.0,58.5 66.5,67.5 75.5,67.5" /><polygon fill="rgb(255, 0, 0)" points="43.0,59.0 39.0,67.0 47.0,67.0" /><circle cx="14.000000000000002" cy="33.0" fill="rgb(255, 0, 0)" r="3.0" /><rect fill="rgb(255, 0, 0)" height="6.0" width="6.0" x="33.0" y="53.99999999999999" /><circle cx="62.0" cy="23.0" fill="rgb(0, 0, 255)" r="3.0" /><circle cx="20.0" cy="43.0" fill="rgb(255, 0, 0)" r="2.5" /><rect fill="rgb(0, 0, 255)" height="6.0" width="6.0" x="70.0" y="21.0" /><circle cx="60.0" cy="66.0" fill="rgb(0, 0, 255)" r="3.0" /><rect fill="rgb(255, 0, 0)" height="5.0" width="5.0" x="30.5" y="34.5" /><rect fill="rgb(0, 0, 255)" height="5.0" width="5.0" x="47.5" y="3.5" /><rect fill="rgb(0, 0, 255)" height="5.0" width="5.0" x="60.5" y="35.5" /><rect fill="rgb(255, 0, 0)" height="5.0" width="5.0" x="27.5" y="19.5" /><rect fill="rgb(0, 0, 255)" height="6.0" width="6.0" x="66.0" y="77.0" /></svg>