<?xml version="1.0" encoding="utf-8" ?>
<svg baseProfile="full" height="600" version="1.1" viewBox="0,0,100,100" width="600" xmlns="http://www.w3.org/2000/svg" xmlns:ev="http://www.w3.org/2001/xml-events" xmlns:xlink="http://www.w3.org/1999/xlink"><defs /><rect fill="rgb(210, 210, 210)" height="100" width="100" x="0" y="0" /><rect fill="rgb(255, 255, 0)" height="11.0" width="11.0" x="77.5" y="73.5" /><polygon fill="rgb(255, 255, 0)" points="12.0,77.0 8.0,85.0 16.0,85.0" /><rect fill="rgb(255, 0, 0)" height="8.0" width="8.0" x="9.0" y="36.0" /><rect fill="rgb(0, 0, 255)" height="8.0" width="8.0" x="73.0" y="26.0" /><circle cx="53.0" cy="42.0" fill="rgb(0, 0, 255)" r="3.5000000000000004" /><circle cx="83.0" cy="48.0" fill="rgb(0, 0, 255)" r="3.0" /><circle cx="31.0" cy="86.0" fill="rgb(255, 0, 0)" r="2.5" /><polygon fill="rgb(255, 255, 0)" points="92.0,75.0 89.0,81.0 95.0,81.0" /><polygon fill="rgb(0, 0, 255)" points="69.0,18.5 66.5,23.5 71.5,23.5" /><circle cx="73.0" cy="62.0" fill="rgb(0, 0, 255)" r="3.0" /><polygon fill="rgb(0, 0, 255)" points="63.0,1.0 60.0,7.0 66.0,7.0" /><rect fill="rgb(255, 0, 0)" height="6.0" width="6.0" x="8.0" y="0.0" /><polygon fill="rgb(255, 0, 0)" points="22.0,17.5 19.5,22.5 24.5,22.5" /><rect fill="rgb(0, 0, 255)" height="5.0" width="5.0" x="60.5" y="62.5" /><rect fill="rgb(255, 0, 0)" height="5.0" width="5.0" x="36.5" y="56.5" /></svg>