<?xml version="1.0" encoding="utf-8" ?>
<svg baseProfile="full" height="600" version="1.1" viewBox="0,0,100,100" width="600" xmlns="http://www.w3.org/2000/svg" xmlns:ev="http://www.w3.org/2001/xml-events" xmlns:xlink="http://www.w3.org/1999/xlink"><defs /><rect fill="rgb(210, 210, 210)" height="100" width="100" x="0" y="0" /><circle cx="7.000000000000001" cy="37.0" fill="rgb(255, 0, 0)" r="6.5" /><rect fill="rgb(0, 0, 255)" height="6.0" width="6.0" x="76.0" y="6.0" /><polygon fill="rgb(255, 0, 0)" points="45.0,30.0 40.0,40.0 50.0,40.0" /><polygon fill="rgb(0, 0, 255)" points="85.0,20.5 80.5,29.5 89.5,29.5" /><rect fill="rgb(0, 0, 255)" height="7.000000000000001" width="7.000000000000001" x="60.5" y="63.5" /><rect fill="rgb(0, 0, 255)" height="6.0" width="6.0" x="80.0" y="56.0" /><circle cx="32.0" cy="55.00000000000001" fill="rgb(255, 0, 0)" r="3.5000000000000004" /><circle cx="71.0" cy="14.000000000000002" fill="rgb(0, 0, 255)" r="3.0" /><rect fill="rgb(0, 0, 255)" height="6.0" width="6.0" x="53.99999999999999" y="47.0" /><polygon fill="rgb(255, 0, 0)" points="36.0,59.0 33.0,65.0 39.0,65.0" /><rect fill="rgb(255, 0, 0)" height="6.0" width="6.0" x="25.000000000000004" y="42.0" /><circle cx="74.0" cy="76.0" fill="rgb(0, 0, 255)" r="3.0" /><circle cx="33.0" cy="28.000000000000004" fill="rgb(255, 0, 0)" r="3.0" /><rect fill="rgb(255, 255, 0)" height="5.0" width="5.0" x="31.5" y="69.5" /><polygon fill="rgb(0, 0, 255)" points="75.0,48.0 72.0,54.0 78.0,54.0" /></svg>