<?xml version="1.0" encoding="utf-8" ?>
<svg baseProfile="full" height="600" version="1.1" viewBox="0,0,100,100" width="600" xmlns="http://www.w3.org/2000/svg" xmlns:ev="http://www.w3.org/2001/xml-events" xmlns:xlink="http://www.w3.org/1999/xlink"><defs /><rect fill="rgb(210, 210, 210)" height="100" width="100" x="0" y="0" /><rect fill="rgb(255, 0, 0)" height="11.0" width="11.0" x="21.5" y="39.5" /><circle cx="52.0" cy="62.0" fill="rgb(0, 0, 255)" r="4.5" /><circle cx="72.0" cy="40.0" fill="rgb(0, 0, 255)" r="4.5" /><circle cx="7.000000000000001" cy="7.000000000000001" fill="rgb(255, 0, 0)" r="4.0" /><polygon fill="rgb(255, 0, 0)" points="9.0,72.0 6.0,78.0 12.0,78.0" /><rect fill="rgb(0, 0, 255)" height="6.0" width="6.0" x="61.0" y="67.0" /><rect fill="rgb(255, 0, 0)" height="6.0" width="6.0" x="28.0" y="19.0" /><rect fill="rgb(255, 0, 0)" height="6.0" width="6.0" x="16.0" y="79.0" /><polygon fill="rgb(255, 0, 0)" points="7.000000000000001,64.0 4.000000000000001,70.0 10.0,70.0" /><rect fill="rgb(0, 0, 255)" height="6.0" width="6.0" x="84.0" y="78.0" /><circle cx="67.0" cy="82.0" fill="rgb(0, 0, 255)" r="3.0" /><polygon fill="rgb(255, 0, 0)" points="46.0,61.0 43.0,67.0 49.0,67.0" /><circle cx="65.0" cy="59.0" fill="rgb(0, 0, 255)" r="3.0" /><polygon fill="rgb(0, 0, 255)" points="88.0,6.5 85.5,11.5 90.5,11.5" /></svg>