<?xml version="1.0" encoding="utf-8" ?>
<svg baseProfile="full" height="600" version="1.1" viewBox="0,0,100,100" width="600" xmlns="http://www.w3.org/2000/svg" xmlns:ev="http://www.w3.org/2001/xml-events" xmlns:xlink="http://www.w3.org/1999/xlink"><defs /><rect fill="rgb(210, 210, 210)" height="100" width="100" x="0" y="0" /><circle cx="97.0" cy="21.0" fill="rgb(0, 0, 255)" r="2.5" /><rect fill="rgb(0, 0, 255)" height="12.0" width="12.0" x="70.0" y="57.0" /><rect fill="rgb(255, 0, 0)" height="5.0" width="5.0" x="6.5" y="68.5" /><circle cx="93.0" cy="67.0" fill="rgb(0, 0, 255)" r="3.5000000000000004" /><polygon fill="rgb(255, 0, 0)" points="16.0,4.5 12.5,11.5 19.5,11.5" /><polygon fill="rgb(0, 0, 255)" points="80.0,85.0 77.0,91.0 83.0,91.0" /><polygon fill="rgb(0, 0, 255)" points="94.0,27.5 91.5,32.5 96.5,32.5" /><rect fill="rgb(255, 0, 0)" height="6.0" width="6.0" x="32.0" y="40.0" /><polygon fill="rgb(255, 255, 0)" points="21.0,89.0 18.0,95.0 24.0,95.0" /><polygon fill="rgb(0, 0, 255)" points="73.0,8.0 70.0,14.0 76.0,14.0" /><polygon fill="rgb(0, 0, 255)" points="83.0,15.0 80.0,21.0 86.0,21.0" /><circle cx="44.0" cy="96.0" fill="rgb(255, 255, 0)" r="2.5" /><rect fill="rgb(255, 0, 0)" height="6.0" width="6.0" x="9.0" y="14.0" /><polygon fill="rgb(255, 255, 0)" points="7.000000000000001,84.5 4.500000000000001,89.5 9.5,89.5" /><polygon fill="rgb(255, 0, 0)" points="40.0,64.0 37.0,70.0 43.0,70.0" /></svg>