<?xml version="1.0" encoding="utf-8" ?>
<svg baseProfile="full" height="600" version="1.1" viewBox="0,0,100,100" width="600" xmlns="http://www.w3.org/2000/svg" xmlns:ev="http://www.w3.org/2001/xml-events" xmlns:xlink="http://www.w3.org/1999/xlink"><defs /><rect fill="rgb(210, 210, 210)" height="100" width="100" x="0" y="0" /><circle cx="68.0" cy="88.0" fill="rgb(0, 0, 255)" r="6.0" /><rect fill="rgb(255, 0, 0)" height="10.0" width="10.0" x="21.0" y="52.99999999999999" /><rect fill="rgb(255, 0, 0)" height="9.0" width="9.0" x="23.500000000000004" y="39.5" /><polygon fill="rgb(255, 255, 0)" points="20.0,71.5 16.5,78.5 23.5,78.5" /><circle cx="36.0" cy="30.0" fill="rgb(255, 0, 0)" r="2.5" /><polygon fill="rgb(0, 0, 255)" points="51.0,72.0 48.0,78.0 54.0,78.0" /><rect fill="rgb(255, 255, 0)" height="6.0" width="6.0" x="53.99999999999999" y="91.0" /><rect fill="rgb(0, 0, 255)" height="6.0" width="6.0" x="86.0" y="48.0" /><polygon fill="rgb(255, 0, 0)" points="15.0,0.49999999999999956 11.5,7.5 18.5,7.5" /><polygon fill="rgb(255, 0, 0)" points="39.0,46.5 36.5,51.5 41.5,51.5" /><rect fill="rgb(255, 0, 0)" height="6.0" width="6.0" x="30.0" y="72.0" /><rect fill="rgb(0, 0, 255)" height="6.0" width="6.0" x="79.0" y="46.0" /></svg>