<?xml version="1.0" encoding="utf-8" ?>
<svg baseProfile="full" height="600" version="1.1" viewBox="0,0,100,100" width="600" xmlns="http://www.w3.org/2000/svg" xmlns:ev="http://www.w3.org/2001/xml-events" xmlns:xlink="http://www.w3.org/1999/xlink"><defs /><rect fill="rgb(210, 210, 210)" height="100" width="100" x="0" y="0" /><polygon fill="rgb(255, 255, 0)" points="55.00000000000001,59.0 52.00000000000001,65.0 58.00000000000001,65.0" /><circle cx="21.0" cy="84.0" fill="rgb(255, 255, 0)" r="5.0" /><circle cx="62.0" cy="59.0" fill="rgb(0, 0, 255)" r="3.5000000000000004" /><circle cx="31.0" cy="90.0" fill="rgb(255, 0, 0)" r="2.5" /><polygon fill="rgb(255, 255, 0)" points="31.0,61.5 28.5,66.5 33.5,66.5" /><polygon fill="rgb(0, 0, 255)" points="89.0,88.0 86.0,94.0 92.0,94.0" /><rect fill="rgb(0, 0, 255)" height="7.000000000000001" width="7.000000000000001" x="86.5" y="23.5" /><circle cx="23.0" cy="28.000000000000004" fill="rgb(255, 0, 0)" r="3.0" /><rect fill="rgb(255, 0, 0)" height="6.0" width="6.0" x="35.0" y="25.000000000000004" /><polygon fill="rgb(255, 0, 0)" points="16.0,27.0 13.0,33.0 19.0,33.0" /><rect fill="rgb(0, 0, 255)" height="5.0" width="5.0" x="58.5" y="20.5" /><circle cx="95.0" cy="7.000000000000001" fill="rgb(0, 0, 255)" r="3.0" /><circle cx="51.0" cy="46.0" fill="rgb(0, 0, 255)" r="3.0" /></svg>