<?xml version="1.0" encoding="utf-8" ?>
<svg baseProfile="full" height="600" version="1.1" viewBox="0,0,100,100" width="600" xmlns="http://www.w3.org/2000/svg" xmlns:ev="http://www.w3.org/2001/xml-events" xmlns:xlink="http://www.w3.org/1999/xlink"><defs /><rect fill="rgb(210, 210, 210)" height="100" width="100" x="0" y="0" /><rect fill="rgb(255, 0, 0)" height="6.0" width="6.0" x="1.0" y="31.0" /><circle cx="47.0" cy="46.0" fill="rgb(255, 0, 0)" r="5.5" /><circle cx="48.0" cy="65.0" fill="rgb(255, 0, 0)" r="4.0" /><rect fill="rgb(255, 255, 0)" height="7.000000000000001" width="7.000000000000001" x="84.5" y="70.5" /><polygon fill="rgb(0, 0, 255)" points="56.00000000000001,29.0 53.00000000000001,35.0 59.00000000000001,35.0" /><polygon fill="rgb(0, 0, 255)" points="74.0,27.5 70.5,34.5 77.5,34.5" /><polygon fill="rgb(255, 255, 0)" points="82.0,88.0 79.0,94.0 85.0,94.0" /><polygon fill="rgb(0, 0, 255)" points="64.0,77.0 61.0,83.0 67.0,83.0" /><circle cx="66.0" cy="57.99999999999999" fill="rgb(0, 0, 255)" r="2.5" /><polygon fill="rgb(255, 0, 0)" points="43.0,20.0 40.0,26.0 46.0,26.0" /><rect fill="rgb(0, 0, 255)" height="6.0" width="6.0" x="68.0" y="67.0" /><circle cx="21.0" cy="47.0" fill="rgb(255, 0, 0)" r="3.0" /></svg>