<?xml version="1.0" encoding="utf-8" ?>
<svg baseProfile="full" height="600" version="1.1" viewBox="0,0,100,100" width="600" xmlns="http://www.w3.org/2000/svg" xmlns:ev="http://www.w3.org/2001/xml-events" xmlns:xlink="http://www.w3.org/1999/xlink"><defs /><rect fill="rgb(210, 210, 210)" height="100" width="100" x="0" y="0" /><polygon fill="rgb(0, 0, 255)" points="75.0,85.0 68.0,99.0 82.0,99.0" /><rect fill="rgb(255, 0, 0)" height="8.0" width="8.0" x="11.0" y="22.0" /><circle cx="39.0" cy="80.0" fill="rgb(255, 0, 0)" r="4.0" /><rect fill="rgb(0, 0, 255)" height="6.0" width="6.0" x="88.0" y="24.0" /><rect fill="rgb(0, 0, 255)" height="5.0" width="5.0" x="67.5" y="1.5" /><polygon fill="rgb(255, 0, 0)" points="15.0,81.5 11.5,88.5 18.5,88.5" /><circle cx="92.0" cy="4.0" fill="rgb(0, 0, 255)" r="3.0" /><rect fill="rgb(255, 0, 0)" height="7.000000000000001" width="7.000000000000001" x="1.4999999999999996" y="90.5" /><polygon fill="rgb(0, 0, 255)" points="59.0,84.5 56.5,89.5 61.5,89.5" /><polygon fill="rgb(0, 0, 255)" points="84.0,86.0 81.0,92.0 87.0,92.0" /><circle cx="21.0" cy="74.0" fill="rgb(255, 255, 0)" r="3.0" /><polygon fill="rgb(255, 255, 0)" points="48.0,49.0 45.0,55.0 51.0,55.0" /><circle cx="69.0" cy="45.0" fill="rgb(0, 0, 255)" r="2.5" /><circle cx="59.0" cy="46.0" fill="rgb(0, 0, 255)" r="2.5" /></svg>