<?xml version="1.0" encoding="utf-8" ?>
<svg baseProfile="full" height="600" version="1.1" viewBox="0,0,100,100" width="600" xmlns="http://www.w3.org/2000/svg" xmlns:ev="http://www.w3.org/2001/xml-events" xmlns:xlink="http://www.w3.org/1999/xlink"><defs /><rect fill="rgb(210, 210, 210)" height="100" width="100" x="0" y="0" /><polygon fill="rgb(0, 0, 255)" points="56.00000000000001,67.0 46.00000000000001,87.0 66.0,87.0" /><rect fill="rgb(255, 0, 0)" height="6.0" width="6.0" x="25.999999999999996" y="39.0" /><circle cx="74.0" cy="41.0" fill="rgb(0, 0, 255)" r="3.0" /><rect fill="rgb(0, 0, 255)" height="8.0" width="8.0" x="73.0" y="52.00000000000001" /><circle cx="71.0" cy="93.0" fill="rgb(0, 0, 255)" r="3.0" /><rect fill="rgb(255, 255, 0)" height="5.0" width="5.0" x="85.5" y="76.5" /><circle cx="94.0" cy="76.0" fill="rgb(255, 255, 0)" r="3.0" /><rect fill="rgb(255, 0, 0)" height="5.0" width="5.0" x="14.5" y="33.5" /><circle cx="28.000000000000004" cy="7.000000000000001" fill="rgb(255, 0, 0)" r="3.0" /><circle cx="27.0" cy="76.0" fill="rgb(255, 0, 0)" r="3.0" /><circle cx="21.0" cy="52.0" fill="rgb(255, 0, 0)" r="2.5" /><rect fill="rgb(0, 0, 255)" height="6.0" width="6.0" x="67.0" y="66.0" /><polygon fill="rgb(255, 0, 0)" points="39.0,65.0 36.0,71.0 42.0,71.0" /><circle cx="61.0" cy="9.0" fill="rgb(0, 0, 255)" r="2.5" /><circle cx="15.0" cy="65.0" fill="rgb(255, 0, 0)" r="3.0" /></svg>