<?xml version="1.0" encoding="utf-8" ?>
<svg baseProfile="full" height="600" version="1.1" viewBox="0,0,100,100" width="600" xmlns="http://www.w3.org/2000/svg" xmlns:ev="http://www.w3.org/2001/xml-events" xmlns:xlink="http://www.w3.org/1999/xlink"><defs /><rect fill="rgb(210, 210, 210)" height="100" width="100" x="0" y="0" /><circle cx="67.0" cy="73.0" fill="rgb(0, 0, 255)" r="8.5" /><rect fill="rgb(255, 255, 0)" height="12.0" width="12.0" x="22.000000000000004" y="30.0" /><polygon fill="rgb(255, 255, 0)" points="11.0,47.0 8.0,53.0 14.0,53.0" /><polygon fill="rgb(255, 0, 0)" points="31.0,75.5 27.5,82.5 34.5,82.5" /><polygon fill="rgb(255, 0, 0)" points="28.999999999999996,85.0 25.999999999999996,91.0 31.999999999999996,91.0" /><circle cx="73.0" cy="6.0" fill="rgb(0, 0, 255)" r="3.0" /><circle cx="39.0" cy="68.0" fill="rgb(255, 255, 0)" r="3.0" /><rect fill="rgb(0, 0, 255)" height="6.0" width="6.0" x="59.0" y="11.000000000000002" /><polygon fill="rgb(255, 255, 0)" points="16.0,51.5 13.5,56.5 18.5,56.5" /><rect fill="rgb(255, 0, 0)" height="6.0" width="6.0" x="14.0" y="25.999999999999996" /><circle cx="95.0" cy="47.0" fill="rgb(255, 255, 0)" r="2.5" /><polygon fill="rgb(0, 0, 255)" points="62.0,93.5 59.5,98.5 64.5,98.5" /><polygon fill="rgb(255, 0, 0)" points="9.0,71.5 6.5,76.5 11.5,76.5" /><polygon fill="rgb(255, 255, 0)" points="62.0,49.0 59.0,55.0 65.0,55.0" /><polygon fill="rgb(0, 0, 255)" points="54.0,10.5 51.5,15.5 56.5,15.5" /></svg>