<?xml version="1.0" encoding="utf-8" ?>
<svg baseProfile="full" height="600" version="1.1" viewBox="0,0,100,100" width="600" xmlns="http://www.w3.org/2000/svg" xmlns:ev="http://www.w3.org/2001/xml-events" xmlns:xlink="http://www.w3.org/1999/xlink"><defs /><rect fill="rgb(210, 210, 210)" height="100" width="100" x="0" y="0" /><rect fill="rgb(0, 0, 255)" height="6.0" width="6.0" x="67.0" y="45.0" /><rect fill="rgb(0, 0, 255)" height="10.0" width="10.0" x="48.0" y="35.0" /><polygon fill="rgb(255, 0, 0)" points="38.0,6.5 33.5,15.5 42.5,15.5" /><circle cx="66.0" cy="4.0" fill="rgb(0, 0, 255)" r="3.0" /><circle cx="45.0" cy="84.0" fill="rgb(255, 255, 0)" r="3.5000000000000004" /><polygon fill="rgb(255, 255, 0)" points="12.0,59.0 9.0,65.0 15.0,65.0" /><rect fill="rgb(0, 0, 255)" height="5.0" width="5.0" x="78.5" y="21.5" /><circle cx="5.0" cy="95.0" fill="rgb(255, 255, 0)" r="3.0" /><circle cx="26.0" cy="67.0" fill="rgb(255, 255, 0)" r="3.0" /><polygon fill="rgb(255, 255, 0)" points="94.0,79.0 91.0,85.0 97.0,85.0" /><rect fill="rgb(255, 0, 0)" height="6.0" width="6.0" x="17.0" y="30.0" /><polygon fill="rgb(255, 0, 0)" points="43.0,40.0 40.0,46.0 46.0,46.0" /><circle cx="52.0" cy="3.0" fill="rgb(0, 0, 255)" r="3.0" /><rect fill="rgb(255, 0, 0)" height="6.0" width="6.0" x="11.000000000000002" y="79.0" /></svg>