<?xml version="1.0" encoding="utf-8" ?>
<svg baseProfile="full" height="600" version="1.1" viewBox="0,0,100,100" width="600" xmlns="http://www.w3.org/2000/svg" xmlns:ev="http://www.w3.org/2001/xml-events" xmlns:xlink="http://www.w3.org/1999/xlink"><defs /><rect fill="rgb(210, 210, 210)" height="100" width="100" x="0" y="0" /><polygon fill="rgb(255, 0, 0)" points="38.0,65.5 32.5,76.5 43.5,76.5" /><circle cx="42.0" cy="92.0" fill="rgb(255, 0, 0)" r="3.0" /><rect fill="rgb(255, 0, 0)" height="8.0" width="8.0" x="33.0" y="9.0" /><rect fill="rgb(0, 0, 255)" height="8.0" width="8.0" x="47.0" y="24.999999999999996" /><rect fill="rgb(0, 0, 255)" height="7.000000000000001" width="7.000000000000001" x="66.5" y="40.5" /><rect fill="rgb(255, 0, 0)" height="6.0" width="6.0" x="45.0" y="63.0" /><polygon fill="rgb(255, 0, 0)" points="39.0,35.0 36.0,41.0 42.0,41.0" /><polygon fill="rgb(255, 255, 0)" points="19.0,79.0 16.0,85.0 22.0,85.0" /><circle cx="89.0" cy="52.0" fill="rgb(0, 0, 255)" r="3.0" /><rect fill="rgb(255, 255, 0)" height="6.0" width="6.0" x="11.000000000000002" y="60.0" /><rect fill="rgb(255, 255, 0)" height="6.0" width="6.0" x="25.000000000000004" y="64.0" /><rect fill="rgb(0, 0, 255)" height="6.0" width="6.0" x="79.0" y="10.0" /><circle cx="40.0" cy="50.0" fill="rgb(255, 255, 0)" r="2.5" /></svg>