<?xml version="1.0" encoding="utf-8" ?>
<svg baseProfile="full" height="600" version="1.1" viewBox="0,0,100,100" width="600" xmlns="http://www.w3.org/2000/svg" xmlns:ev="http://www.w3.org/2001/xml-events" xmlns:xlink="http://www.w3.org/1999/xlink"><defs /><rect fill="rgb(210, 210, 210)" height="100" width="100" x="0" y="0" /><rect fill="rgb(255, 255, 0)" height="5.0" width="5.0" x="33.5" y="12.5" /><polygon fill="rgb(0, 0, 255)" points="56.99999999999999,18.5 54.49999999999999,23.5 59.49999999999999,23.5" /><rect fill="rgb(0, 0, 255)" height="5.0" width="5.0" x="9.5" y="18.5" /><circle cx="83.0" cy="41.0" fill="rgb(255, 0, 0)" r="5.0" /><circle cx="54.0" cy="38.0" fill="rgb(0, 0, 255)" r="5.0" /><polygon fill="rgb(0, 0, 255)" points="21.0,29.0 16.0,39.0 26.0,39.0" /><circle cx="65.0" cy="51.0" fill="rgb(255, 255, 0)" r="7.5" /><polygon fill="rgb(0, 0, 255)" points="24.0,45.5 16.5,60.5 31.5,60.5" /><polygon fill="rgb(255, 255, 0)" points="40.0,47.50000000000001 32.5,62.50000000000001 47.5,62.50000000000001" /><polygon fill="rgb(255, 255, 0)" points="14.000000000000002,67.0 4.000000000000002,87.0 24.0,87.0" /><circle cx="48.0" cy="74.0" fill="rgb(255, 255, 0)" r="10.0" /><rect fill="rgb(255, 255, 0)" height="20.0" width="20.0" x="76.0" y="63.0" /></svg>