<?xml version="1.0" encoding="utf-8" ?>
<svg baseProfile="full" height="600" version="1.1" viewBox="0,0,100,100" width="600" xmlns="http://www.w3.org/2000/svg" xmlns:ev="http://www.w3.org/2001/xml-events" xmlns:xlink="http://www.w3.org/1999/xlink"><defs /><rect fill="rgb(210, 210, 210)" height="100" width="100" x="0" y="0" /><polygon fill="rgb(255, 0, 0)" points="27.0,48.49999999999999 17.5,67.5 36.5,67.5" /><rect fill="rgb(255, 0, 0)" height="13.0" width="13.0" x="4.5" y="47.5" /><circle cx="31.0" cy="30.0" fill="rgb(0, 0, 255)" r="8.5" /><rect fill="rgb(255, 0, 0)" height="15.0" width="15.0" x="20.500000000000004" y="5.5" /><circle cx="36.0" cy="86.0" fill="rgb(0, 0, 255)" r="7.5" /><rect fill="rgb(0, 0, 255)" height="10.0" width="10.0" x="33.0" y="50.00000000000001" /><polygon fill="rgb(0, 0, 255)" points="15.0,81.5 9.5,92.5 20.5,92.5" /><rect fill="rgb(255, 255, 0)" height="14.000000000000002" width="14.000000000000002" x="82.0" y="70.0" /><polygon fill="rgb(255, 255, 0)" points="68.0,62.5 61.5,75.5 74.5,75.5" /><polygon fill="rgb(255, 255, 0)" points="83.0,43.0 74.0,61.0 92.0,61.0" /><polygon fill="rgb(255, 255, 0)" points="64.0,26.0 56.0,42.0 72.0,42.0" /><circle cx="74.0" cy="15.0" fill="rgb(255, 255, 0)" r="5.0" /></svg>