<?xml version="1.0" encoding="utf-8" ?>
<svg baseProfile="full" height="600" version="1.1" viewBox="0,0,100,100" width="600" xmlns="http://www.w3.org/2000/svg" xmlns:ev="http://www.w3.org/2001/xml-events" xmlns:xlink="http://www.w3.org/1999/xlink"><defs /><rect fill="rgb(210, 210, 210)" height="100" width="100" x="0" y="0" /><circle cx="68.0" cy="12.0" fill="rgb(255, 0, 0)" r="6.5" /><polygon fill="rgb(0, 0, 255)" points="18.0,64.5 12.5,75.5 23.5,75.5" /><polygon fill="rgb(255, 0, 0)" points="39.0,91.5 36.5,96.5 41.5,96.5" /><circle cx="94.0" cy="40.0" fill="rgb(0, 0, 255)" r="4.0" /><polygon fill="rgb(255, 0, 0)" points="55.00000000000001,74.0 52.00000000000001,80.0 58.00000000000001,80.0" /><rect fill="rgb(255, 0, 0)" height="7.000000000000001" width="7.000000000000001" x="65.5" y="37.5" /><polygon fill="rgb(255, 255, 0)" points="95.0,82.5 91.5,89.5 98.5,89.5" /><rect fill="rgb(0, 0, 255)" height="7.000000000000001" width="7.000000000000001" x="21.5" y="0.49999999999999956" /><rect fill="rgb(255, 255, 0)" height="6.0" width="6.0" x="4.000000000000001" y="79.0" /><rect fill="rgb(255, 0, 0)" height="5.0" width="5.0" x="48.5" y="14.5" /><polygon fill="rgb(255, 255, 0)" points="7.000000000000001,36.5 4.500000000000001,41.5 9.5,41.5" /><rect fill="rgb(0, 0, 255)" height="6.0" width="6.0" x="68.0" y="86.0" /><rect fill="rgb(255, 0, 0)" height="5.0" width="5.0" x="27.5" y="93.5" /><polygon fill="rgb(255, 255, 0)" points="86.0,27.0 83.0,33.0 89.0,33.0" /><circle cx="90.0" cy="7.000000000000001" fill="rgb(0, 0, 255)" r="3.0" /></svg>