<?xml version="1.0" encoding="utf-8" ?>
<svg baseProfile="full" height="600" version="1.1" viewBox="0,0,100,100" width="600" xmlns="http://www.w3.org/2000/svg" xmlns:ev="http://www.w3.org/2001/xml-events" xmlns:xlink="http://www.w3.org/1999/xlink"><defs /><rect fill="rgb(210, 210, 210)" height="100" width="100" x="0" y="0" /><rect fill="rgb(255, 0, 0)" height="15.0" width="15.0" x="74.5" y="5.5" /><rect fill="rgb(255, 0, 0)" height="7.000000000000001" width="7.000000000000001" x="11.5" y="63.5" /><rect fill="rgb(255, 255, 0)" height="9.0" width="9.0" x="21.5" y="2.500000000000001" /><polygon fill="rgb(0, 0, 255)" points="51.0,64.5 47.5,71.5 54.5,71.5" /><circle cx="28.999999999999996" cy="41.0" fill="rgb(255, 0, 0)" r="3.0" /><polygon fill="rgb(255, 255, 0)" points="64.0,11.000000000000002 61.0,17.0 67.0,17.0" /><polygon fill="rgb(255, 255, 0)" points="27.0,83.5 23.5,90.5 30.5,90.5" /><polygon fill="rgb(0, 0, 255)" points="34.0,64.5 31.5,69.5 36.5,69.5" /><circle cx="28.999999999999996" cy="56.99999999999999" fill="rgb(255, 0, 0)" r="2.5" /><polygon fill="rgb(0, 0, 255)" points="78.0,58.5 75.5,63.5 80.5,63.5" /><rect fill="rgb(255, 255, 0)" height="6.0" width="6.0" x="92.0" y="77.0" /><rect fill="rgb(0, 0, 255)" height="6.0" width="6.0" x="61.0" y="82.0" /><circle cx="41.0" cy="34.0" fill="rgb(255, 0, 0)" r="3.0" /><rect fill="rgb(255, 255, 0)" height="6.0" width="6.0" x="33.0" y="47.0" /></svg>