<?xml version="1.0" encoding="utf-8" ?>
<svg baseProfile="full" height="600" version="1.1" viewBox="0,0,100,100" width="600" xmlns="http://www.w3.org/2000/svg" xmlns:ev="http://www.w3.org/2001/xml-events" xmlns:xlink="http://www.w3.org/1999/xlink"><defs /><rect fill="rgb(210, 210, 210)" height="100" width="100" x="0" y="0" /><rect fill="rgb(0, 0, 255)" height="18.0" width="18.0" x="77.0" y="19.000000000000004" /><polygon fill="rgb(255, 0, 0)" points="86.0,1.0 81.0,11.0 91.0,11.0" /><polygon fill="rgb(0, 0, 255)" points="76.0,73.5 72.5,80.5 79.5,80.5" /><circle cx="20.0" cy="93.0" fill="rgb(255, 0, 0)" r="3.5000000000000004" /><rect fill="rgb(255, 255, 0)" height="5.0" width="5.0" x="76.5" y="49.5" /><polygon fill="rgb(255, 255, 0)" points="15.0,59.5 12.5,64.5 17.5,64.5" /><circle cx="74.0" cy="15.0" fill="rgb(255, 255, 0)" r="3.0" /><polygon fill="rgb(255, 0, 0)" points="67.0,31.5 64.5,36.5 69.5,36.5" /><rect fill="rgb(0, 0, 255)" height="7.000000000000001" width="7.000000000000001" x="34.5" y="87.5" /><rect fill="rgb(0, 0, 255)" height="5.0" width="5.0" x="58.5" y="46.5" /><rect fill="rgb(0, 0, 255)" height="5.0" width="5.0" x="4.500000000000001" y="29.5" /><polygon fill="rgb(0, 0, 255)" points="49.0,52.00000000000001 46.0,58.00000000000001 52.0,58.00000000000001" /><polygon fill="rgb(255, 255, 0)" points="26.0,39.0 23.0,45.0 29.0,45.0" /></svg>