<?xml version="1.0" encoding="utf-8" ?>
<svg baseProfile="full" height="600" version="1.1" viewBox="0,0,100,100" width="600" xmlns="http://www.w3.org/2000/svg" xmlns:ev="http://www.w3.org/2001/xml-events" xmlns:xlink="http://www.w3.org/1999/xlink"><defs /><rect fill="rgb(210, 210, 210)" height="100" width="100" x="0" y="0" /><rect fill="rgb(255, 255, 0)" height="12.0" width="12.0" x="78.0" y="74.0" /><rect fill="rgb(255, 0, 0)" height="6.0" width="6.0" x="80.0" y="58.0" /><circle cx="60.0" cy="74.0" fill="rgb(0, 0, 255)" r="3.0" /><rect fill="rgb(255, 255, 0)" height="9.0" width="9.0" x="23.500000000000004" y="19.5" /><circle cx="49.0" cy="30.0" fill="rgb(0, 0, 255)" r="3.0" /><circle cx="95.0" cy="51.0" fill="rgb(255, 255, 0)" r="3.5000000000000004" /><rect fill="rgb(0, 0, 255)" height="7.000000000000001" width="7.000000000000001" x="29.5" y="48.5" /><circle cx="4.0" cy="39.0" fill="rgb(255, 0, 0)" r="3.0" /><polygon fill="rgb(255, 255, 0)" points="36.0,78.0 33.0,84.0 39.0,84.0" /><circle cx="55.00000000000001" cy="33.0" fill="rgb(255, 0, 0)" r="3.0" /><rect fill="rgb(255, 255, 0)" height="5.0" width="5.0" x="74.5" y="20.5" /><circle cx="9.0" cy="77.0" fill="rgb(255, 255, 0)" r="3.0" /><rect fill="rgb(255, 0, 0)" height="5.0" width="5.0" x="38.5" y="84.5" /><circle cx="66.0" cy="43.0" fill="rgb(0, 0, 255)" r="3.0" /><circle cx="16.0" cy="67.0" fill="rgb(0, 0, 255)" r="2.5" /></svg>