<?xml version="1.0" encoding="utf-8" ?>
<svg baseProfile="full" height="600" version="1.1" viewBox="0,0,100,100" width="600" xmlns="http://www.w3.org/2000/svg" xmlns:ev="http://www.w3.org/2001/xml-events" xmlns:xlink="http://www.w3.org/1999/xlink"><defs /><rect fill="rgb(210, 210, 210)" height="100" width="100" x="0" y="0" /><rect fill="rgb(0, 0, 255)" height="19.0" width="19.0" x="12.5" y="56.5" /><rect fill="rgb(255, 0, 0)" height="7.000000000000001" width="7.000000000000001" x="20.5" y="91.5" /><circle cx="91.0" cy="20.0" fill="rgb(255, 255, 0)" r="2.5" /><polygon fill="rgb(255, 0, 0)" points="83.0,4.0 79.0,12.0 87.0,12.0" /><circle cx="13.0" cy="34.0" fill="rgb(0, 0, 255)" r="3.5000000000000004" /><circle cx="62.0" cy="62.0" fill="rgb(0, 0, 255)" r="3.0" /><circle cx="57.99999999999999" cy="55.00000000000001" fill="rgb(0, 0, 255)" r="3.5000000000000004" /><rect fill="rgb(255, 255, 0)" height="6.0" width="6.0" x="74.0" y="37.0" /><polygon fill="rgb(255, 255, 0)" points="13.0,84.5 10.5,89.5 15.5,89.5" /><circle cx="15.0" cy="47.0" fill="rgb(0, 0, 255)" r="3.0" /><polygon fill="rgb(255, 0, 0)" points="96.0,55.49999999999999 93.5,60.49999999999999 98.5,60.49999999999999" /><polygon fill="rgb(255, 255, 0)" points="23.0,1.5 20.5,6.5 25.5,6.5" /><circle cx="76.0" cy="80.0" fill="rgb(255, 255, 0)" r="2.5" /></svg>