<?xml version="1.0" encoding="utf-8" ?>
<svg baseProfile="full" height="600" version="1.1" viewBox="0,0,100,100" width="600" xmlns="http://www.w3.org/2000/svg" xmlns:ev="http://www.w3.org/2001/xml-events" xmlns:xlink="http://www.w3.org/1999/xlink"><defs /><rect fill="rgb(210, 210, 210)" height="100" width="100" x="0" y="0" /><rect fill="rgb(255, 255, 0)" height="13.0" width="13.0" x="51.49999999999999" y="23.5" /><rect fill="rgb(0, 0, 255)" height="7.000000000000001" width="7.000000000000001" x="25.499999999999996" y="54.49999999999999" /><rect fill="rgb(255, 255, 0)" height="8.0" width="8.0" x="49.0" y="4.0" /><rect fill="rgb(255, 0, 0)" height="7.000000000000001" width="7.000000000000001" x="14.5" y="36.5" /><circle cx="9.0" cy="69.0" fill="rgb(0, 0, 255)" r="3.0" /><polygon fill="rgb(255, 0, 0)" points="74.0,51.0 71.0,57.0 77.0,57.0" /><rect fill="rgb(255, 0, 0)" height="6.0" width="6.0" x="91.0" y="3.0" /><polygon fill="rgb(0, 0, 255)" points="82.0,69.0 79.0,75.0 85.0,75.0" /><circle cx="50.0" cy="50.0" fill="rgb(255, 255, 0)" r="2.5" /><rect fill="rgb(255, 255, 0)" height="6.0" width="6.0" x="82.0" y="1.0" /><rect fill="rgb(255, 255, 0)" height="5.0" width="5.0" x="54.49999999999999" y="69.5" /><circle cx="42.0" cy="82.0" fill="rgb(255, 255, 0)" r="2.5" /><polygon fill="rgb(255, 0, 0)" points="8.0,31.0 5.0,37.0 11.0,37.0" /></svg>