<?xml version="1.0" encoding="utf-8" ?>
<svg baseProfile="full" height="600" version="1.1" viewBox="0,0,100,100" width="600" xmlns="http://www.w3.org/2000/svg" xmlns:ev="http://www.w3.org/2001/xml-events" xmlns:xlink="http://www.w3.org/1999/xlink"><defs /><rect fill="rgb(210, 210, 210)" height="100" width="100" x="0" y="0" /><rect fill="rgb(255, 255, 0)" height="10.0" width="10.0" x="57.0" y="60.0" /><circle cx="64.0" cy="37.0" fill="rgb(0, 0, 255)" r="6.0" /><polygon fill="rgb(0, 0, 255)" points="31.0,2.0 27.0,10.0 35.0,10.0" /><rect fill="rgb(0, 0, 255)" height="9.0" width="9.0" x="78.5" y="76.5" /><circle cx="75.0" cy="5.0" fill="rgb(255, 255, 0)" r="3.0" /><rect fill="rgb(255, 255, 0)" height="7.000000000000001" width="7.000000000000001" x="61.5" y="19.5" /><circle cx="23.0" cy="87.0" fill="rgb(0, 0, 255)" r="3.5000000000000004" /><circle cx="20.0" cy="68.0" fill="rgb(255, 255, 0)" r="3.0" /><rect fill="rgb(255, 255, 0)" height="6.0" width="6.0" x="51.0" y="77.0" /><rect fill="rgb(255, 0, 0)" height="6.0" width="6.0" x="9.0" y="36.0" /><polygon fill="rgb(255, 0, 0)" points="89.0,33.0 86.0,39.0 92.0,39.0" /><circle cx="13.0" cy="55.00000000000001" fill="rgb(0, 0, 255)" r="3.0" /><rect fill="rgb(0, 0, 255)" height="5.0" width="5.0" x="31.5" y="33.5" /><circle cx="3.0" cy="22.0" fill="rgb(255, 0, 0)" r="2.5" /><polygon fill="rgb(255, 0, 0)" points="13.0,3.5 10.5,8.5 15.5,8.5" /></svg>